<svg width="126" height="24" viewBox="0 0 126 24" fill="none" xmlns="http://www.w3.org/2000/svg">
<path d="M35.0884 4.97561H38.7943V6.94634H29.0029V4.97561H32.7673V3.12195H35.0884V4.97561ZM33.9376 14.439C33.294 14.439 32.7088 14.361 32.2017 14.1854C31.6946 14.0293 31.2655 13.7951 30.9144 13.5219C30.5633 13.2488 30.2902 12.9171 30.1147 12.5463C29.9392 12.1756 29.8416 11.7854 29.8416 11.3756V10.6732C29.8416 10.2634 29.9392 9.85365 30.1147 9.50244C30.2902 9.1317 30.5633 8.8 30.9144 8.52683C31.2655 8.25366 31.6946 8.01951 32.2017 7.86341C32.7088 7.70731 33.2744 7.60975 33.9376 7.60975C34.5813 7.60975 35.1469 7.6878 35.654 7.86341C36.1611 8.01951 36.5902 8.25366 36.9413 8.52683C37.2924 8.8 37.5655 9.1317 37.741 9.50244C37.9166 9.87317 38.0141 10.2634 38.0141 10.6732V11.3756C38.0141 11.7854 37.9166 12.1951 37.741 12.5463C37.5655 12.8976 37.2924 13.2488 36.9413 13.5219C36.5902 13.7951 36.1611 14.0293 35.654 14.1854C35.1469 14.361 34.5618 14.439 33.9376 14.439ZM34.0741 18.2439H42.7927V20.2341H31.7336V15.4732H34.0741V18.2439ZM33.9376 9.42439C33.6255 9.42439 33.3525 9.46341 33.1184 9.56097C32.8844 9.63902 32.6893 9.75609 32.5138 9.89268C32.3577 10.0293 32.2407 10.1658 32.1627 10.3415C32.0847 10.4976 32.0457 10.6537 32.0457 10.8293V11.278C32.0457 11.4341 32.0847 11.5902 32.1627 11.7658C32.2407 11.9415 32.3577 12.078 32.5138 12.2146C32.6698 12.3512 32.8648 12.4683 33.1184 12.5463C33.3525 12.6244 33.6255 12.6829 33.9376 12.6829C34.2497 12.6829 34.5227 12.6439 34.7568 12.5463C34.9909 12.4683 35.1859 12.3512 35.3614 12.2146C35.5175 12.078 35.6345 11.9415 35.7125 11.7658C35.7905 11.6098 35.8296 11.4537 35.8296 11.278V10.8293C35.8296 10.6732 35.7905 10.5171 35.7125 10.3415C35.6345 10.1854 35.5175 10.0293 35.3614 9.89268C35.2054 9.75609 35.0104 9.63902 34.7568 9.56097C34.5032 9.46341 34.2302 9.42439 33.9376 9.42439ZM42.4026 8.21463H44.6457V10.2439H42.4026V15.6683H40.0816V3.27805H42.4026V8.21463V8.21463ZM47.1422 14.478H51.7258V11.8829H45.0943V9.9317H55.8023C55.9388 9.34634 56.0364 8.78048 56.0754 8.19512C56.1144 7.60975 56.1534 7.10244 56.1534 6.67317V5.85366H47.1422V3.90244H58.4744V6.55609C58.4744 6.77073 58.4744 7.00487 58.4549 7.27805C58.4354 7.55122 58.4159 7.8439 58.3769 8.13658C58.3379 8.44878 58.3184 8.74146 58.2599 9.05366C58.2209 9.36585 58.1624 9.65853 58.1234 9.9317H60.776V11.8829H54.0469V14.478H58.6695V20.5854H56.3484V16.4293H47.1422V14.478ZM66.3153 12.1561C65.6326 12.1561 65.0085 12.0585 64.4819 11.8244C63.9357 11.6098 63.4871 11.3366 63.097 10.9854C62.7069 10.6341 62.4339 10.2244 62.2388 9.77561C62.0438 9.30731 61.9463 8.83902 61.9463 8.3317V7.66829C61.9463 7.18048 62.0438 6.69268 62.2388 6.22439C62.4339 5.75609 62.7265 5.34634 63.097 4.99512C63.4676 4.6439 63.9357 4.37073 64.4819 4.15609C65.028 3.94146 65.6326 3.82439 66.3153 3.82439C66.998 3.82439 67.6221 3.94146 68.1487 4.15609C68.6949 4.37073 69.1435 4.6439 69.5336 4.99512C69.9237 5.34634 70.1967 5.75609 70.3918 6.22439C70.5868 6.69268 70.6843 7.16097 70.6843 7.66829V8.3317C70.6843 8.83902 70.5868 9.30731 70.3918 9.77561C70.1967 10.2439 69.9042 10.6341 69.5336 10.9854C69.163 11.3366 68.6949 11.6098 68.1487 11.8244C67.6026 12.0585 66.998 12.1561 66.3153 12.1561ZM66.3153 5.81463C65.9642 5.81463 65.6717 5.87317 65.3986 5.97073C65.1255 6.0878 64.911 6.22439 64.7159 6.41951C64.5209 6.61463 64.3844 6.80975 64.2868 7.0439C64.1893 7.27805 64.1308 7.49268 64.1308 7.72683V8.27317C64.1308 8.50731 64.1893 8.74146 64.2868 8.95609C64.3844 9.19024 64.5209 9.38536 64.7159 9.58048C64.8915 9.75609 65.1255 9.91219 65.3986 10.0293C65.6717 10.1463 65.9837 10.1854 66.3153 10.1854C66.6664 10.1854 66.959 10.1268 67.232 10.0293C67.5051 9.91219 67.7196 9.77561 67.9147 9.58048C68.0902 9.40487 68.2463 9.19024 68.3438 8.95609C68.4413 8.72195 68.4998 8.50731 68.4998 8.27317V7.72683C68.4998 7.49268 68.4413 7.25853 68.3438 7.0439C68.2463 6.80975 68.1097 6.61463 67.9147 6.41951C67.7391 6.2439 67.5051 6.0878 67.232 5.97073C66.959 5.87317 66.6469 5.81463 66.3153 5.81463ZM64.7354 13.6195H75.5995V20.3902H64.7354V13.6195ZM67.0175 18.4585H73.298V15.5512H67.0175V18.4585V18.4585ZM75.5995 12.839H73.2785V3.27805H75.5995V12.839ZM82.7187 9.65853C82.6602 9.81463 82.5432 9.97073 82.3871 10.1463C82.2311 10.3219 81.958 10.5951 81.5679 10.9268C81.1388 11.2976 80.6902 11.6683 80.2416 12.039C79.7735 12.4098 79.2859 12.8 78.7788 13.1902L77.3939 11.4732C77.9401 11.0829 78.4277 10.7122 78.8568 10.3415C79.3054 9.99024 79.7345 9.6 80.1831 9.20975C80.5537 8.85853 80.8658 8.46829 81.0998 8.01951C81.3339 7.57073 81.4314 7.0439 81.4314 6.43902V3.98048H83.7915V6.38048C83.7915 6.69268 83.811 6.96585 83.8305 7.2C83.8695 7.43414 83.928 7.66829 84.006 7.86341C84.084 8.05853 84.2206 8.27317 84.3766 8.46829C84.5326 8.66341 84.7472 8.85853 84.9812 9.05366C85.3323 9.34634 85.7419 9.65853 86.2296 10.0098C86.6977 10.361 87.1658 10.6927 87.6339 11.0049L86.3466 12.6244C85.9175 12.3317 85.5079 12.039 85.1178 11.7463C84.7277 11.4537 84.3571 11.1805 84.006 10.9073C83.6939 10.6537 83.4014 10.439 83.1478 10.2244C82.9333 9.99024 82.7772 9.81463 82.7187 9.65853V9.65853ZM86.054 20.8976C85.2738 20.8976 84.5521 20.8195 83.9085 20.6634C83.2648 20.5073 82.7187 20.2732 82.2506 19.9805C81.7825 19.6878 81.4314 19.3366 81.1778 18.9268C80.9243 18.5171 80.8073 18.0683 80.8073 17.5805V16.8C80.8073 16.3122 80.9243 15.8634 81.1778 15.4537C81.4314 15.0439 81.7825 14.6927 82.2506 14.4C82.7187 14.1073 83.2648 13.8732 83.9085 13.7171C84.5521 13.561 85.2738 13.4829 86.054 13.4829C86.8342 13.4829 87.5559 13.561 88.1995 13.7171C88.8432 13.8732 89.3893 14.1073 89.8574 14.4C90.3255 14.6927 90.6766 15.0439 90.9302 15.4537C91.1837 15.8634 91.3008 16.3122 91.3008 16.8V17.5805C91.3008 18.0683 91.1837 18.5171 90.9302 18.9268C90.6766 19.3366 90.3255 19.6878 89.8574 19.9805C89.3893 20.2732 88.8432 20.5073 88.1995 20.6634C87.5559 20.8195 86.8342 20.8976 86.054 20.8976ZM86.054 15.3561C85.5859 15.3561 85.1763 15.4146 84.8057 15.5122C84.4351 15.6098 84.123 15.7268 83.8695 15.8829C83.6159 16.039 83.4209 16.2146 83.2843 16.3902C83.1478 16.5658 83.0893 16.761 83.0893 16.9366V17.4244C83.0893 17.6 83.1478 17.7951 83.2843 17.9707C83.4209 18.1463 83.6159 18.3219 83.8695 18.478C84.123 18.6341 84.4351 18.7512 84.8057 18.8488C85.1763 18.9463 85.5859 19.0049 86.054 19.0049C86.5221 19.0049 86.9317 18.9463 87.3023 18.8488C87.6729 18.7512 87.985 18.6341 88.2385 18.478C88.4921 18.3219 88.6871 18.1463 88.8237 17.9707C88.9602 17.7951 89.0187 17.6 89.0187 17.4244V16.9366C89.0187 16.761 88.9602 16.5658 88.8237 16.3902C88.6871 16.2146 88.4921 16.039 88.2385 15.8829C87.985 15.7268 87.6729 15.6098 87.3023 15.5122C86.9317 15.4146 86.5221 15.3561 86.054 15.3561ZM91.2422 7.18048H93.4853V9.20975H91.2422V13.4049H88.9212V3.27805H91.2422V7.18048V7.18048ZM94.7531 4.31219H103.589V6.28292H100.409V7.41463C100.409 7.62926 100.429 7.8439 100.448 8.01951C100.487 8.19512 100.546 8.39024 100.624 8.54634C100.721 8.72195 100.839 8.87805 100.995 9.05366C101.151 9.20975 101.346 9.38536 101.599 9.58048C101.989 9.87317 102.399 10.1854 102.847 10.478C103.296 10.7902 103.745 11.0829 104.213 11.3756L102.984 13.0146C102.165 12.4683 101.404 11.961 100.721 11.4537C100.331 11.1805 100.019 10.9268 99.7853 10.7317C99.5512 10.5366 99.4147 10.3805 99.3757 10.2829H99.3562C99.3172 10.4 99.1806 10.5756 98.9271 10.8098C98.6735 11.0439 98.3419 11.3366 97.9128 11.6683C97.5227 11.9805 97.1131 12.3122 96.7035 12.6244C96.2939 12.9366 95.8453 13.2488 95.3967 13.5805L94.0314 11.8829C94.6165 11.4927 95.1822 11.0829 95.6893 10.6927C96.2159 10.2829 96.6645 9.91219 97.0546 9.56097C97.3667 9.2878 97.6203 8.95609 97.7958 8.60487C97.9713 8.25365 98.0689 7.8439 98.0689 7.39512V6.26341H94.7336V4.31219H94.7531V4.31219ZM102.847 20.8976C102.087 20.8976 101.385 20.8195 100.741 20.6829C100.097 20.5268 99.5317 20.3122 99.0441 20.039C98.5565 19.7658 98.1859 19.4146 97.9128 19.0049C97.6398 18.5951 97.5032 18.1463 97.5032 17.6195V16.8195C97.5032 16.3122 97.6398 15.8439 97.9128 15.4341C98.1859 15.0244 98.5565 14.6927 99.0441 14.4C99.5317 14.1268 100.078 13.9122 100.741 13.7561C101.385 13.6 102.087 13.5415 102.847 13.5415C103.608 13.5415 104.31 13.6195 104.954 13.7561C105.598 13.9122 106.163 14.1268 106.651 14.4C107.139 14.6732 107.509 15.0244 107.782 15.4341C108.055 15.8439 108.192 16.2927 108.192 16.8195V17.6195C108.192 18.1268 108.055 18.5951 107.782 19.0049C107.509 19.4146 107.139 19.7463 106.651 20.039C106.163 20.3122 105.617 20.5268 104.954 20.6829C104.31 20.839 103.608 20.8976 102.847 20.8976ZM102.847 15.4341C102.438 15.4341 102.048 15.4732 101.697 15.5512C101.326 15.6293 100.995 15.7463 100.721 15.8829C100.448 16.0195 100.214 16.1951 100.039 16.3707C99.8633 16.5658 99.7853 16.761 99.7853 16.9951V17.4439C99.7853 17.6585 99.8633 17.8732 100.039 18.0683C100.214 18.2634 100.429 18.4195 100.721 18.5561C100.995 18.6927 101.326 18.8098 101.697 18.8878C102.067 18.9658 102.457 19.0049 102.847 19.0049C103.238 19.0049 103.647 18.9658 103.998 18.8878C104.369 18.8098 104.7 18.6927 104.974 18.5561C105.247 18.4195 105.481 18.2439 105.656 18.0683C105.832 17.8732 105.91 17.678 105.91 17.4439V16.9951C105.91 16.7805 105.832 16.5658 105.656 16.3707C105.481 16.1756 105.266 16.0195 104.974 15.8829C104.7 15.7463 104.369 15.6293 103.998 15.5512C103.628 15.4732 103.257 15.4341 102.847 15.4341ZM105.832 9.46341H103.082V7.49268H105.832V3.27805H108.153V13.4634H105.832V9.46341V9.46341ZM119.212 13.4634V16.2537H125.882V18.2244H110.201V16.2537H116.871V13.4634H112.346V4.44878H114.667V7.2H121.474V4.44878H123.795V13.4634H119.212V13.4634ZM121.455 11.5122V9.17073H114.648V11.5122H121.455Z" fill="#2D3D50"/>
<path d="M5.18812 11.8439L0.331459 20.1951C-0.604764 21.8146 0.565515 23.8439 2.43796 23.8439H20.3822C22.2547 23.8439 23.425 21.8146 22.4887 20.1951L17.5931 11.7463L11.4686 13.1317L5.18812 11.8439V11.8439Z" fill="#2876CB"/>
<path d="M8.17266 2.98535V6.67316L0.390306 20.1561L0.370801 20.1951C0.292782 20.3317 0.234269 20.4488 0.195259 20.6049C0.175755 20.6244 0.175755 20.6634 0.15625 20.7024V20.7219C0.15625 20.6829 0.175755 20.6634 0.195259 20.6439C0.234269 20.5073 0.312287 20.3707 0.370801 20.2341L0.390306 20.1951L0.507334 20L2.84789 15.9414L5.18845 11.8829L5.30548 11.6878C6.2417 10.5561 7.88009 10.2439 9.1869 10.9853L10.6888 11.8439C10.9423 11.9805 11.1764 12.1171 11.4104 12.2341C11.6445 12.1171 11.8785 11.9805 12.1321 11.8439L13.634 10.9853C14.9798 10.2049 16.6767 10.5756 17.6129 11.7853L19.973 15.8829L22.2745 19.8634L22.4891 20.2146C22.5866 20.3707 22.6646 20.5268 22.7231 20.7024C22.7426 20.7414 22.7426 20.7805 22.7621 20.8L22.8206 21.0927C22.8206 21.1317 22.8206 21.1512 22.8401 21.1902V21.6V21.5805V21.4244V21.2878V21.1707C22.8401 21.1317 22.8401 21.1122 22.8206 21.0732L22.7621 20.7805C22.7621 20.7414 22.7426 20.7024 22.7231 20.6829C22.6646 20.5073 22.5866 20.3512 22.4891 20.1951L14.6287 6.61462V2.98535H8.17266Z" fill="url(#paint0_linear_3_2)"/>
<path d="M11.4105 12.2146C11.1764 12.0975 10.9423 11.961 10.6888 11.8244L9.18693 10.9658C7.88012 10.2049 6.24173 10.5366 5.3055 11.6683L5.18848 11.8634V11.8829C5.24699 12.2927 5.89064 15.1415 11.4105 12.2146Z" fill="#1976D2"/>
<path d="M12.4049 15.9024L14.4724 15.0439C16.3448 14.2634 18.6854 14.6342 19.9532 15.8439L17.5931 11.7464C16.6764 10.5366 14.9795 10.1659 13.6142 10.9464L12.1123 11.8049C11.8588 11.9415 11.6247 12.0781 11.3907 12.1951C5.89035 15.122 5.2467 12.2732 5.16868 11.8439V11.8244L2.82812 15.8829V15.922C2.92565 16.3902 3.88138 19.4732 12.4049 15.9024V15.9024Z" fill="#42A5F5"/>
<path d="M12.6777 19.9219L15.3109 19.0634C17.6709 18.2829 20.6356 18.6537 22.2545 19.8439L19.953 15.8634C18.6852 14.6341 16.3446 14.2634 14.4722 15.0634L12.4047 15.9219C3.88114 19.4927 2.92541 16.4097 2.84739 15.9805V15.9415L0.506836 20C0.623864 20.4488 1.89167 23.4732 12.6777 19.9219V19.9219Z" fill="#2C8DE3"/>
<path d="M22.8206 21.4714V21.3364V21.2207C22.8206 21.1821 22.8206 21.1627 22.8011 21.1241L22.7424 20.8349C22.7416 20.7991 22.7278 20.7648 22.7034 20.7385C22.6452 20.5689 22.5664 20.407 22.469 20.2564L22.254 19.9093C20.6324 18.7327 17.6626 18.3664 15.2987 19.1378L12.6607 19.9863C1.85606 23.4964 0.586114 20.5262 0.449387 20.0441L0.332164 20.2371L0.312659 20.2757C0.234641 20.4105 0.175932 20.5262 0.136728 20.6806C0.117223 20.6999 0.117223 20.7385 0.0977183 20.7579C0.0782136 20.8349 0.058709 20.8927 0.0392043 20.97V21.0084C0.0196997 21.0857 0.0196997 21.1434 0 21.2207V21.6835C0 21.7606 0.0195046 21.8185 0.0390093 21.8956V21.9342C0.0585139 21.992 0.0585139 22.05 0.0780186 22.1077L0.136728 22.2814C0.136728 22.3007 0.156232 22.3391 0.175737 22.3584C0.195241 22.4355 0.234446 22.4935 0.273455 22.5512L0.331969 22.6671C0.351669 22.7056 0.371173 22.7249 0.390678 22.7635C0.429687 22.8213 0.468892 22.8599 0.507901 22.9177C0.54691 22.9563 0.56661 22.9949 0.605619 23.0334L0.683833 23.1106L0.781356 23.207C0.82056 23.2457 0.859765 23.265 0.898774 23.3034C0.996297 23.3807 1.07451 23.4384 1.17223 23.4964C1.30896 23.5735 1.46538 23.6505 1.62162 23.6892C1.66063 23.7085 1.69963 23.7085 1.71933 23.7278C1.81686 23.7469 1.91477 23.7856 2.01249 23.7856C2.0515 23.7856 2.071 23.7856 2.11001 23.8049H20.4955C20.5345 23.8049 20.5735 23.8049 20.6127 23.7856C20.6517 23.7856 20.6712 23.7856 20.7104 23.7662C20.8079 23.7469 20.9057 23.7278 20.9839 23.7085C21.0229 23.7085 21.0621 23.6892 21.1011 23.6699C21.1596 23.6505 21.1988 23.6312 21.2573 23.6121C21.4645 23.5381 21.6565 23.4269 21.8239 23.2841C21.8631 23.2457 21.9022 23.2263 21.9412 23.1877C21.9804 23.1684 21.9999 23.13 22.0389 23.0913L22.1171 23.0142C22.1366 22.9949 22.1561 22.9756 22.1561 22.9563C22.1756 22.9177 22.2148 22.8985 22.2343 22.8599C22.2733 22.8213 22.2928 22.7828 22.3125 22.7442C22.332 22.7249 22.3515 22.6862 22.371 22.6671C22.3905 22.6478 22.4101 22.6092 22.4101 22.5899C22.4298 22.5514 22.4688 22.4935 22.4883 22.4548C22.5078 22.4164 22.5273 22.3584 22.547 22.3198C22.5665 22.2814 22.586 22.2234 22.6055 22.185V22.1657C22.625 22.127 22.625 22.0884 22.6445 22.05V22.0306C22.6642 21.9534 22.6837 21.8763 22.6837 21.7992V21.7799V21.7028C22.6837 21.6642 22.6837 21.6256 22.7032 21.5871C22.8204 21.5678 22.8204 21.5292 22.8204 21.4714H22.8206Z" fill="#2876CB"/>
<path d="M7.56739 2.98538H15.2717C16.0519 2.98538 16.6956 2.34148 16.6956 1.56099C16.6956 0.780499 16.0519 0.136597 15.2717 0.136597H7.56739C6.78721 0.136597 6.14355 0.780499 6.14355 1.56099C6.14355 2.34148 6.78721 2.98538 7.56739 2.98538Z" fill="#C2DEEE"/>
<defs>
<linearGradient id="paint0_linear_3_2" x1="11.4691" y1="2.66418" x2="11.4691" y2="10.3307" gradientUnits="userSpaceOnUse">
<stop stop-color="#A6CFE2"/>
<stop offset="0.64" stop-color="#C2DEEE"/>
</linearGradient>
</defs>
</svg>
