<svg width="105" height="102" viewBox="0 0 105 102" fill="none" xmlns="http://www.w3.org/2000/svg">
<path d="M32.6562 52.25C32.6562 34.815 46.7893 20.682 64.2233 20.682C81.6573 20.682 95.7903 34.815 95.7903 52.249V94.701H32.6562V52.25Z" fill="#007BE9"/>
<path d="M15.2402 94.701H95.7902V101.233H15.2402V94.701Z" fill="#0057C3"/>
<path d="M90.6922 26.428C89.784 25.3499 88.6412 24.4937 87.3512 23.925C86.0412 23.3456 84.6193 23.0629 83.1872 23.097C82.0162 18.972 78.6332 15.411 74.6782 13.464C68.6582 10.466 61.4222 10.297 54.8082 11.02C48.0482 11.758 41.3192 13.797 35.6812 17.425C30.5392 20.648 26.4322 25.155 23.8112 30.45C21.0732 36.107 20.5672 42.51 22.3872 48.492C22.8438 49.9328 23.4459 51.3233 24.1842 52.642C24.4642 53.155 25.2632 52.735 24.9982 52.242C22.0642 47.022 21.5182 40.78 23.0562 35.082C24.6062 29.691 27.7812 24.847 32.1902 21.145C36.8822 17.196 42.5202 14.399 48.6142 12.998C51.832 12.2286 55.1166 11.7722 58.4222 11.635C61.6181 11.4461 64.8251 11.6334 67.9772 12.193C71.018 12.716 73.9161 13.8679 76.4862 15.575C78.7792 17.157 80.5862 19.292 81.7192 21.76C81.9292 22.222 82.1092 22.696 82.2592 23.18C80.2532 23.346 78.3822 24.209 77.0042 25.603C76.4858 26.0957 76.0808 26.6952 75.8172 27.36C75.558 28.0162 75.449 28.7222 75.4982 29.426C75.5572 30.081 75.8082 30.708 76.2232 31.236C76.6382 31.762 77.2002 32.169 77.8452 32.408C78.5512 32.597 79.2982 32.598 80.0052 32.412C80.7051 32.23 81.3436 31.864 81.8542 31.352C82.8973 30.2326 83.5108 28.7802 83.5862 27.252C83.6898 26.1682 83.6298 25.075 83.4082 24.009C85.0025 24.0222 86.5659 24.4495 87.9452 25.249C93.2652 28.401 91.9222 35.287 90.4272 40.063C88.5591 45.9939 85.7364 51.5806 82.0702 56.603C78.5582 61.415 74.0522 66.673 67.6642 67.83C66.1552 68.12 64.5992 68.11 63.0942 67.8C62.5232 67.677 62.2312 68.501 62.8092 68.625C66.1322 69.337 69.6072 68.599 72.5202 67.025C75.4342 65.453 77.8402 63.147 79.9502 60.692C84.2238 55.7146 87.6239 50.0495 90.0062 43.937C91.2132 41.0472 92.0612 38.0203 92.5312 34.924C92.9092 31.967 92.5912 28.831 90.6912 26.428H90.6922ZM82.0052 29.584C81.4012 30.774 80.1712 31.757 78.7142 31.67C77.4032 31.593 76.5562 30.501 76.3892 29.343C76.1892 28.016 76.9822 26.746 77.9642 25.864C78.8705 25.0664 79.9575 24.5017 81.1312 24.219C81.5672 24.113 82.0112 24.039 82.4582 23.999C82.5682 24.506 82.6412 25.019 82.6742 25.536C82.8134 26.9208 82.5825 28.3177 82.0052 29.584Z" fill="url(#paint0_linear_37_4)"/>
<path d="M74.1101 45.054C73.8415 44.8377 73.5517 44.6491 73.2451 44.491C73.3871 44.389 73.506 44.2583 73.5942 44.1074C73.6824 43.9565 73.7379 43.7888 73.7571 43.615C73.7797 43.436 73.7531 43.2542 73.6801 43.0891C73.6072 42.924 73.4907 42.7819 73.3431 42.678C73.1597 42.5701 72.9472 42.5221 72.7352 42.5405C72.5232 42.559 72.3222 42.6431 72.1601 42.781C71.412 41.2871 70.4086 39.9355 69.1951 38.787C68.7009 38.3165 68.1885 37.8655 67.6591 37.435C67.7681 36.8546 67.7207 36.2557 67.5218 35.6997C67.3229 35.1436 66.9796 34.6505 66.5271 34.271C66.0555 33.8861 65.4665 33.6736 64.8577 33.6689C64.2489 33.6642 63.6567 33.8674 63.1791 34.245C62.1091 33.815 60.9921 33.467 59.9271 33.835C59.5164 33.9619 59.1408 34.1823 58.8298 34.4791C58.5189 34.7758 58.281 35.1407 58.1351 35.545C57.7817 35.382 57.3931 35.3099 57.0047 35.3352C56.6163 35.3605 56.2404 35.4825 55.9111 35.69C55.5997 35.8824 55.3361 36.1429 55.1401 36.452C54.1161 37.988 54.7151 39.832 55.3901 41.357C55.9031 43.196 57.9501 44.317 59.1951 45.454C60.947 47.0329 62.4141 48.9015 63.5321 50.978C64.1651 52.153 64.6797 53.3881 65.0681 54.665C65.0959 54.7748 65.1641 54.87 65.259 54.9317C65.3539 54.9934 65.4685 55.0171 65.5801 54.998C67.7988 54.5307 69.7635 53.2527 71.0901 51.414C72.2208 49.8155 72.7978 47.891 72.7331 45.934C73.1931 46.022 73.6681 45.979 74.1061 45.812C74.1735 45.7785 74.2307 45.7277 74.272 45.6648C74.3133 45.6019 74.3372 45.5292 74.3411 45.454C74.3404 45.3732 74.3189 45.2939 74.2786 45.2239C74.2383 45.1538 74.1806 45.0953 74.1111 45.054H74.1101Z" fill="#17264D"/>
<path d="M69.0214 59.693C68.4214 60.343 67.7594 60.933 67.0454 61.455C64.4854 63.298 61.0084 64.148 58.0434 62.75C57.0496 62.2784 56.1929 61.5603 55.5549 60.6641C54.9169 59.768 54.5188 58.7234 54.3984 57.63L54.9864 57.707L55.3404 57.753L59.1704 58.265C59.0574 57.532 58.9294 56.698 58.7904 55.935C58.7378 55.6423 58.6818 55.3503 58.6224 55.059C58.5581 54.5406 58.4112 54.0359 58.1874 53.564L63.7734 52.069L64.7054 59.033L65.4684 59.14C66.1954 59.243 66.9284 59.345 67.6544 59.463C67.8444 59.489 68.0334 59.519 68.2174 59.555L69.0214 59.693V59.693Z" fill="#F6B399"/>
<path d="M66.2768 48.065C66.2768 48.9882 66.095 49.9023 65.7417 50.7552C65.3884 51.6082 64.8706 52.3831 64.2178 53.0359C63.565 53.6887 62.79 54.2066 61.9371 54.5598C61.0841 54.9131 60.17 55.095 59.2468 55.095C58.3236 55.095 57.4095 54.9131 56.5565 54.5598C55.7036 54.2066 54.9286 53.6887 54.2758 53.0359C53.623 52.3831 53.1052 51.6082 52.7519 50.7552C52.3986 49.9023 52.2168 48.9882 52.2168 48.065C52.2168 46.2005 52.9575 44.4124 54.2758 43.094C55.5942 41.7756 57.3823 41.035 59.2468 41.035C61.1113 41.035 62.8994 41.7756 64.2178 43.094C65.5361 44.4124 66.2768 46.2005 66.2768 48.065V48.065Z" fill="#F6B399"/>
<path d="M69.0211 49.6C67.0811 52.965 62.3961 53.897 58.5611 51.68C54.9451 49.59 53.3731 45.459 54.8281 42.176C54.9143 41.971 55.0152 41.7724 55.1301 41.582C55.2921 41.292 55.4801 41.018 55.6931 40.763C57.8741 38.08 62.0831 37.476 65.5911 39.503C69.4051 41.716 70.9471 46.242 69.0211 49.601V49.6Z" fill="#F6B399"/>
<path d="M68.3906 52.422C68.4172 52.9922 68.2723 53.5572 67.9748 54.0444C67.6772 54.5315 67.2405 54.9183 66.7211 55.1549C66.2016 55.3915 65.6232 55.4671 65.0604 55.372C64.4976 55.2768 63.9762 55.0153 63.5634 54.621C63.1506 54.2267 62.8654 53.7179 62.7445 53.16C62.6236 52.6022 62.6726 52.0209 62.8851 51.4911C63.0977 50.9614 63.4641 50.5074 63.937 50.1878C64.4099 49.8682 64.9678 49.6976 65.5386 49.698C66.2779 49.6813 66.9936 49.9589 67.5284 50.4697C68.0632 50.9805 68.3733 51.6827 68.3906 52.422V52.422Z" fill="#F6B399"/>
<path d="M67.2597 52.371C66.5308 51.8237 65.6559 51.505 64.7457 51.455C64.6886 51.452 64.6314 51.4603 64.5775 51.4793C64.5236 51.4984 64.4739 51.5279 64.4314 51.5662C64.3455 51.6434 64.2938 51.7516 64.2877 51.867C64.2816 51.9824 64.3216 52.0954 64.3989 52.1813C64.4761 52.2672 64.5843 52.3189 64.6997 52.325C64.8017 52.325 64.9037 52.325 65.0117 52.351C65.2797 52.394 65.5437 52.461 65.8007 52.551C65.8977 52.586 65.9907 52.622 66.0867 52.668C66.3297 52.791 66.5627 52.933 66.7837 53.093C66.8797 53.1554 66.9963 53.1775 67.1085 53.1545C67.2206 53.1315 67.3191 53.0652 67.3827 52.97C67.4426 52.8734 67.4633 52.7574 67.4404 52.646C67.4175 52.5346 67.3529 52.4362 67.2597 52.371V52.371Z" fill="#EE796A"/>
<path d="M34.9103 80.385L33.9263 80.748C29.3793 82.428 24.7613 84.21 19.9063 84.583C17.4643 84.768 14.9143 84.583 12.7383 83.365C11.7477 82.8415 10.8935 82.093 10.2444 81.1797C9.59522 80.2664 9.16916 79.2137 9.00035 78.106C8.65235 75.736 9.24635 73.349 9.81435 71.061C10.4701 68.3981 11.1531 65.7419 11.8633 63.093C13.2286 57.9319 14.6795 52.7939 16.2153 47.681L14.5513 46.231C13.4615 45.9556 12.3803 45.6468 11.3093 45.305C8.86716 44.5173 6.48386 43.5576 4.17735 42.433C3.09974 41.9999 2.12481 41.3458 1.31535 40.513C0.982294 40.1364 0.74358 39.686 0.618911 39.199C0.494242 38.712 0.487194 38.2023 0.598349 37.712C0.34093 37.243 0.230153 36.7076 0.280349 36.175C0.398349 35.075 1.21235 34.015 2.39535 34.045C2.55198 33.7019 2.79012 33.4022 3.08902 33.1722C3.38793 32.9421 3.73855 32.7886 4.11035 32.725C5.13435 32.637 5.86735 33.462 6.42035 34.194C6.89235 34.844 7.42135 35.451 8.00235 36.007C7.86128 35.4216 7.76864 34.8256 7.72535 34.225C7.66772 33.7072 7.72368 33.183 7.88935 32.689C7.98239 32.429 8.13885 32.1963 8.34456 32.0121C8.55027 31.8279 8.79871 31.6979 9.06735 31.634C9.35582 31.5808 9.65236 31.5903 9.93686 31.6617C10.2214 31.7331 10.4872 31.8649 10.7163 32.048C11.5763 32.74 11.9503 33.871 12.3343 34.87C12.6443 35.832 13.0733 36.752 13.6093 37.61C13.9107 38.0387 14.3007 38.3977 14.7529 38.6625C15.2052 38.9273 15.709 39.0919 16.2303 39.145C17.5543 39.247 18.8833 39.259 20.2093 39.181L24.4943 39.125C26.5433 39.099 29.0773 39.345 29.9023 41.578C30.2261 42.68 30.2857 43.8427 30.0763 44.972C29.9063 46.396 29.7273 47.824 29.5643 49.248C29.2213 52.115 28.8673 54.988 28.5403 57.855C28.2943 59.903 27.3823 62.689 27.1373 64.716C27.5023 64.479 27.8543 64.22 28.1913 63.943C28.402 63.7812 28.6055 63.6104 28.8013 63.431C29.1853 63.124 29.5483 62.842 29.8253 62.679C30.9174 65.9961 31.9416 69.3351 32.8973 72.694C33.5887 75.2519 34.2594 77.8153 34.9093 80.384L34.9103 80.385Z" fill="#F6B399"/>
<path d="M68.8683 51.444C68.8013 51.854 68.7403 51.956 68.3913 51.726C67.3673 51.009 65.3653 51.168 64.5973 52.192C64.3473 52.52 63.8703 52.704 63.9013 52.243C64.0242 50.4966 64.7226 48.8402 65.8873 47.533C66.4003 46.938 66.9683 46.339 66.8813 45.484C66.7184 44.639 66.3332 43.8526 65.7653 43.206C62.4916 42.5583 59.4144 41.1554 56.7783 39.109C56.7175 39.0579 56.6706 38.9923 56.642 38.9182C56.6134 38.844 56.604 38.7639 56.6148 38.6852C56.6256 38.6065 56.6562 38.5318 56.7037 38.4681C56.7511 38.4044 56.814 38.3538 56.8863 38.321C56.9847 37.9231 57.2038 37.5653 57.5135 37.2968C57.8232 37.0282 58.2084 36.862 58.6163 36.821C59.6366 36.7429 60.6626 36.8434 61.6483 37.118C64.8583 37.819 68.0893 39.616 69.6463 42.627C71.0693 45.423 71.0183 49.048 68.8683 51.444ZM54.8223 43.912C54.8524 43.8069 54.9035 43.7089 54.9724 43.6241C55.0414 43.5392 55.1268 43.4692 55.2236 43.4183C55.3204 43.3673 55.4264 43.3365 55.5354 43.3276C55.6444 43.3188 55.7541 43.3321 55.8578 43.3667C55.9615 43.4014 56.0571 43.4567 56.1389 43.5293C56.2206 43.6019 56.2868 43.6903 56.3335 43.7892C56.3802 43.8881 56.4064 43.9954 56.4105 44.1047C56.4145 44.2139 56.3965 44.3229 56.3573 44.425C56.2826 44.6199 56.1355 44.7784 55.9468 44.8674C55.758 44.9565 55.5422 44.9693 55.3443 44.9032C55.1463 44.837 54.9816 44.697 54.8843 44.5124C54.7871 44.3277 54.7649 44.1126 54.8223 43.912V43.912Z" fill="#17264D"/>
<path d="M56.9942 41.92C56.9411 41.8174 56.8495 41.74 56.7394 41.7049C56.6293 41.6699 56.5098 41.68 56.4072 41.733C56.3045 41.7861 56.2272 41.8777 56.1921 41.9878C56.157 42.0979 56.1671 42.2174 56.2202 42.32C56.3841 42.7701 56.4102 43.2588 56.2954 43.7238C56.1805 44.1888 55.9298 44.609 55.5752 44.931C55.1552 45.305 54.5512 45.443 54.2652 45.955C54.1147 46.1864 54.0604 46.4673 54.1138 46.7381C54.1672 47.0088 54.3241 47.2481 54.5512 47.405C55.0632 47.675 55.5192 46.949 55.0272 46.677C54.9512 46.637 54.9402 46.549 54.9922 46.432C55.0792 46.212 55.3812 46.083 55.5702 45.976C56.2621 45.587 56.7884 44.9591 57.0505 44.2098C57.3127 43.4606 57.2926 42.6415 56.9942 41.906V41.92Z" fill="#EE796A"/>
<path d="M57.1677 41.28C57.1366 41.1316 57.075 40.9913 56.9869 40.8678C56.8987 40.7444 56.786 40.6406 56.6557 40.563C56.1437 40.215 55.2217 39.898 54.7917 40.609C54.7487 40.672 54.7127 40.739 54.6837 40.809C54.4127 41.608 56.0257 42.438 56.6557 42.161C56.8261 42.0913 56.9688 41.9672 57.0614 41.8081C57.154 41.6489 57.1913 41.4636 57.1677 41.281V41.28ZM59.5027 45.684C59.5328 45.5789 59.5839 45.4809 59.6529 45.3961C59.7218 45.3112 59.8073 45.2412 59.904 45.1903C60.0008 45.1393 60.1068 45.1085 60.2158 45.0996C60.3248 45.0908 60.4345 45.1041 60.5382 45.1387C60.6419 45.1734 60.7375 45.2287 60.8193 45.3013C60.901 45.3739 60.9673 45.4623 61.0139 45.5612C61.0606 45.6601 61.0868 45.7674 61.0909 45.8767C61.095 45.9859 61.0769 46.0949 61.0377 46.197C60.963 46.3919 60.8159 46.5504 60.6272 46.6394C60.4385 46.7285 60.2226 46.7413 60.0247 46.6752C59.8268 46.609 59.662 46.469 59.5647 46.2844C59.4675 46.0997 59.4453 45.8846 59.5027 45.684V45.684Z" fill="#17264D"/>
<path d="M58.4015 48.705C58.3462 48.6039 58.2538 48.5282 58.1437 48.4939C58.0336 48.4596 57.9146 48.4693 57.8115 48.521C56.9788 49.0013 56.0396 49.267 55.0785 49.294C54.9641 49.2896 54.8525 49.3299 54.7674 49.4065C54.6822 49.483 54.6303 49.5898 54.6225 49.704C54.6193 49.7609 54.6274 49.8178 54.6463 49.8715C54.6652 49.9252 54.6945 49.9747 54.7327 50.017C54.7708 50.0593 54.8169 50.0936 54.8684 50.118C54.9199 50.1424 54.9757 50.1563 55.0325 50.159C56.1501 50.1409 57.2451 49.8417 58.2165 49.289C58.3161 49.2337 58.3908 49.1424 58.4252 49.0338C58.4596 48.9252 58.4511 48.8076 58.4015 48.705V48.705ZM13.4135 42.494C10.6735 40.804 8.50355 37.819 8.07855 34.583C7.98194 34.1201 8.00869 33.6399 8.15611 33.1906C8.30354 32.7413 8.56647 32.3387 8.91854 32.023C9.36354 31.685 8.77954 31.04 8.33854 31.383C6.67054 32.663 7.13654 35.064 7.74554 36.774C8.69258 39.451 10.524 41.7251 12.9375 43.221C13.4135 43.513 13.8895 42.786 13.4135 42.494V42.494Z" fill="#EE796A"/>
<path d="M12.3183 43.354C9.61727 42.3524 7.16997 40.7682 5.15032 38.714C4.20832 37.752 3.06632 36.59 2.83032 35.212C2.7773 34.9257 2.78837 34.6312 2.86272 34.3498C2.93707 34.0683 3.07285 33.8067 3.26032 33.584C3.41594 33.3802 3.63238 33.2311 3.87832 33.1585C4.12426 33.0859 4.38694 33.0934 4.62832 33.18C5.2196 33.5011 5.69423 34.0009 5.98432 34.608C6.49632 35.407 6.95732 36.211 7.44432 37.01C7.73032 37.486 8.50432 37.092 8.21232 36.61L6.75832 34.21C6.41289 33.5636 5.92616 33.0033 5.33432 32.571C5.03338 32.3731 4.68559 32.2581 4.32602 32.2376C3.96646 32.217 3.60783 32.2917 3.28632 32.454C2.98073 32.6268 2.71217 32.8581 2.49598 33.1347C2.27979 33.4112 2.1202 33.7277 2.02632 34.066C1.56032 35.69 2.64632 37.216 3.64432 38.378C5.90098 40.9891 8.78322 42.9851 12.0213 44.179C12.5693 44.369 12.8413 43.544 12.3183 43.355V43.354Z" fill="#EE796A"/>
<path d="M11.9501 44.68C9.61961 44.1095 7.40191 43.1504 5.39009 41.843C4.37585 41.1937 3.42291 40.4533 2.5431 39.631C1.7751 38.904 0.936095 37.983 0.849095 36.871C0.782095 35.991 1.3611 34.823 2.3851 34.854C2.49156 34.8463 2.59151 34.7999 2.66601 34.7235C2.7405 34.647 2.78438 34.5459 2.78931 34.4393C2.79424 34.3327 2.75988 34.2279 2.69276 34.1449C2.62563 34.062 2.53039 34.0065 2.4251 33.989C1.88099 34.0113 1.3593 34.2118 0.940293 34.5596C0.521286 34.9074 0.228185 35.3833 0.106095 35.914C-0.236905 37.148 0.296095 38.361 1.0691 39.319C1.93503 40.3226 2.92806 41.2091 4.02309 41.956C6.32335 43.6302 8.92381 44.8469 11.6831 45.54C12.2161 45.638 12.4931 44.813 11.9501 44.68V44.68Z" fill="#EE796A"/>
<path d="M7.72469 43.4C6.24469 42.714 4.58069 42.489 3.11669 41.726C1.87269 41.066 0.74669 39.867 1.00669 38.356C1.01215 38.2414 0.972125 38.1293 0.895339 38.0441C0.818552 37.9589 0.711215 37.9074 0.59669 37.901C0.482446 37.8968 0.371069 37.9373 0.286143 38.0138C0.201216 38.0904 0.149409 38.1969 0.14169 38.311C-0.15031 39.995 1.02169 41.516 2.40469 42.32C3.97669 43.231 5.80469 43.467 7.43869 44.224C7.54706 44.2597 7.66513 44.2514 7.76745 44.2009C7.86977 44.1504 7.94815 44.0617 7.98569 43.954C8.01876 43.8458 8.01047 43.7293 7.96243 43.6269C7.91438 43.5245 7.83001 43.4437 7.72569 43.4H7.72469Z" fill="#EE796A"/>
<path d="M42.3799 77.502C42.8399 81.552 43.5229 85.572 44.4279 89.545L45.7179 94.702H87.0819L85.7599 92.264C84.3719 86.089 84.8839 79.663 83.3479 73.518C82.7529 70.9571 81.7131 68.5205 80.2759 66.319C78.7861 64.0854 76.7022 62.3122 74.2589 61.199C73.1037 60.6938 71.9039 60.2978 70.6749 60.016L69.9689 59.862L69.0519 59.683C68.4519 60.333 67.7889 60.923 67.0749 61.445C64.5199 63.288 61.0389 64.138 58.0739 62.74C57.0798 62.2687 56.2228 61.5507 55.5846 60.6545C54.9464 59.7583 54.5482 58.7136 54.4279 57.62L53.6599 57.522L52.7949 57.415L50.3109 57.102C48.6317 56.8743 46.9411 56.7411 45.2469 56.703C43.6959 56.683 42.1479 56.854 40.6389 57.215C39.3931 57.5409 38.1784 57.9759 37.0089 58.515C34.6758 59.6472 32.4226 60.9372 30.2649 62.376L29.7529 62.684C30.8387 66.003 31.8629 69.342 32.8249 72.699C33.5349 75.259 34.2319 77.819 34.9149 80.379L35.6519 80.109C37.9049 79.284 40.1579 78.429 42.3799 77.502V77.502Z" fill="#7AC7FF"/>
<path d="M53.4911 75.341C53.5124 75.4128 53.51 75.4894 53.4842 75.5597C53.4584 75.6299 53.4107 75.69 53.3481 75.731C53.2861 75.781 53.2251 75.817 53.1581 75.864C52.9231 76.196 52.7441 76.237 52.5851 76.196C51.6868 76.6173 50.6855 76.7685 49.7029 76.6313C48.7202 76.4941 47.7986 76.0743 47.0501 75.423C45.2071 73.764 45.4211 71.061 44.3871 68.977C43.6475 67.4567 42.3944 66.2468 40.8491 65.561C40.2811 65.321 39.6821 65.182 39.1191 64.926C38.5707 64.7066 38.1085 64.315 37.8021 63.81C37.6467 63.5586 37.5597 63.2709 37.5499 62.9755C37.5401 62.68 37.6077 62.3872 37.7461 62.126C37.905 61.8718 38.124 61.6607 38.3839 61.5114C38.6438 61.3621 38.9365 61.2792 39.2361 61.27C38.9947 61.206 38.7584 61.1241 38.5291 61.025C37.5721 60.615 36.8141 59.78 36.9931 58.675C37.0391 58.3657 37.1553 58.0711 37.3328 57.8137C37.5103 57.5563 37.7444 57.3429 38.0171 57.19C37.9222 57.1189 37.8317 57.0421 37.7461 56.96C37.4337 56.6642 37.2269 56.274 37.1575 55.8493C37.0881 55.4246 37.16 54.9889 37.3621 54.609C37.9151 53.749 39.0621 53.851 39.9221 53.949C42.454 54.2465 44.8738 55.1624 46.9681 56.616C46.4594 55.4241 45.7685 54.3186 44.9201 53.339C44.5635 52.9254 44.1786 52.5372 43.7681 52.177C43.3571 51.8557 42.9918 51.4799 42.6821 51.06C42.5489 50.8499 42.4642 50.6128 42.4342 50.3659C42.4041 50.119 42.4295 49.8684 42.5084 49.6326C42.5873 49.3967 42.7178 49.1813 42.8904 49.0022C43.063 48.8231 43.2733 48.6846 43.5061 48.597C44.5821 48.132 45.6721 48.644 46.5071 49.34C47.3371 50.047 48.0831 50.848 48.7291 51.726C51.2891 55.152 52.4671 59.35 53.5221 63.436C53.5886 63.4934 53.6352 63.5704 53.6551 63.656C53.9111 64.645 54.1671 65.638 54.3671 66.642C54.9201 69.54 55.0121 72.75 53.4911 75.342V75.341Z" fill="#F6B399"/>
<path d="M77.1008 83.396C73.9678 90.006 71.9398 93.949 68.6778 97.466C66.5428 99.771 64.6738 99.771 61.0748 99.771C56.0618 99.771 52.5388 95.674 49.7328 85.592C48.9648 82.842 47.0498 75.408 47.0498 75.408C47.0498 75.408 49.6498 69.33 50.0908 68.966C50.5308 68.603 53.9668 66.048 53.9668 66.048L61.0538 80.702L61.4228 81.465C61.6108 81.193 61.7828 80.909 61.9348 80.615C62.7492 79.1272 63.3837 77.5477 63.8248 75.91L77.0998 83.396H77.1008Z" fill="#F6B399"/>
<path d="M77.728 82.78L64 75.612C65.167 71.649 66.56 67.475 67.722 66.011C70.134 62.939 74.01 60.691 79.673 67.189C83.181 71.219 80.406 77.219 77.728 82.78V82.78Z" fill="#7AC7FF"/>
<path d="M47.7916 65.218C46.6113 64.0685 45.2455 63.1266 43.7516 62.432C43.0049 62.0832 42.2285 61.8021 41.4316 61.592C40.5911 61.3057 39.6964 61.2151 38.8156 61.327C38.3899 61.398 37.9983 61.6041 37.6987 61.9147C37.3991 62.2253 37.2072 62.624 37.1516 63.052C37.1006 63.61 37.9716 63.652 38.0166 63.098C38.0986 62.161 39.2916 62.074 39.9886 62.171C40.8876 62.307 41.7676 62.548 42.6106 62.888C44.3039 63.5434 45.8482 64.5327 47.1516 65.797C47.5516 66.186 48.1966 65.607 47.7916 65.218Z" fill="#EE796A"/>
<path d="M48.9697 61.542C47.4573 59.5853 45.4048 58.1147 43.0657 57.312C41.8689 56.8662 40.5996 56.6474 39.3227 56.667C38.0837 56.723 36.7067 57.369 36.5277 58.741C36.4984 59.0949 36.5484 59.451 36.6742 59.7831C36.8 60.1153 36.9983 60.4152 37.2547 60.661C37.8367 61.1865 38.5269 61.578 39.2767 61.808C39.3831 61.8347 39.4957 61.8203 39.5919 61.7676C39.6882 61.715 39.7611 61.628 39.796 61.524C39.831 61.42 39.8254 61.3067 39.7805 61.2066C39.7356 61.1065 39.6546 61.027 39.5537 60.984C38.6517 60.651 37.2637 60.057 37.3877 58.869C37.5107 57.681 38.8777 57.497 39.7677 57.533C41.9206 57.6603 43.9939 58.3931 45.7487 59.647C46.7233 60.3381 47.5866 61.1741 48.3087 62.126C48.6677 62.566 49.3127 61.982 48.9697 61.542V61.542Z" fill="#EE796A"/>
<path d="M49.5897 58.428C48.2 56.5707 46.2997 55.1582 44.1207 54.363C42.9816 53.9002 41.7976 53.557 40.5877 53.339C39.4097 53.134 38.0527 53.226 37.1617 54.127C36.2717 55.028 36.2247 56.554 37.3007 57.302C37.7607 57.624 38.2317 56.897 37.7767 56.575C37.0547 56.063 37.3617 55.039 37.9507 54.588C38.8267 53.907 40.0447 54.076 41.0227 54.312C43.0047 54.7295 44.8875 55.5257 46.5677 56.657C47.4806 57.297 48.2757 58.0904 48.9177 59.002C48.9942 59.087 49.1011 59.1384 49.2153 59.1451C49.3294 59.1519 49.4417 59.1134 49.5277 59.038C49.6142 58.9636 49.6689 58.8589 49.6805 58.7454C49.692 58.6318 49.6595 58.5182 49.5897 58.428ZM63.1937 54.92C61.8338 55.6219 60.3207 55.9741 58.7907 55.945C58.7373 55.6523 58.6807 55.3603 58.6207 55.069C60.0675 55.1335 61.5062 54.8195 62.7947 54.158C62.8934 54.1227 63.0016 54.1243 63.0992 54.1625C63.1969 54.2007 63.2775 54.2728 63.3262 54.3657C63.3749 54.4585 63.3884 54.5659 63.3642 54.6679C63.34 54.7699 63.2798 54.8598 63.1947 54.921L63.1937 54.92ZM28.1447 63.938L26.5217 71.91C26.4855 72.0192 26.4076 72.1098 26.3049 72.1617C26.2022 72.2136 26.0831 72.2227 25.9737 72.187C25.8669 72.1475 25.779 72.069 25.7278 71.9673C25.6766 71.8656 25.6658 71.7483 25.6977 71.639L27.1307 64.711C27.4827 64.472 27.8207 64.214 28.1447 63.938V63.938ZM64.7397 88.516C63.5261 85.9553 62.3111 83.3953 61.0947 80.836C61.0537 80.707 61.4227 81.47 61.4227 81.47C61.6107 81.198 61.7827 80.914 61.9347 80.62C63.1227 83.109 64.3107 85.607 65.5187 88.096C65.7537 88.613 64.9857 89.028 64.7407 88.516H64.7397Z" fill="#EE796A"/>
<path d="M62.3651 42.227C61.9701 42.0034 61.5228 41.8888 61.0691 41.895C60.914 41.8882 60.7597 41.9202 60.6202 41.9881C60.4807 42.0561 60.3603 42.1578 60.2701 42.284C60.1964 42.4004 60.1572 42.5353 60.1572 42.673C60.1572 42.8107 60.1964 42.9456 60.2701 43.062C60.3681 43.543 61.2081 43.769 61.5921 43.912C62.2161 44.142 62.8051 44.424 63.4041 44.701C63.4775 44.7243 63.5558 44.7278 63.631 44.7113C63.7063 44.6949 63.7759 44.6589 63.8329 44.6071C63.8899 44.5552 63.9323 44.4893 63.9559 44.416C63.9794 44.3426 63.9833 44.2643 63.9671 44.189C63.7071 43.3523 63.1328 42.649 62.3651 42.227V42.227Z" fill="#17264D"/>
<path d="M45.8824 94.42H44.9814C44.6404 93.259 44.3174 92.09 44.0134 90.912C42.633 85.4897 41.6982 79.9636 41.2184 74.389C41.1978 74.2781 41.2202 74.1636 41.2809 74.0685C41.3416 73.9735 41.4361 73.905 41.5454 73.877C41.6565 73.8539 41.7722 73.8752 41.8679 73.9363C41.9636 73.9974 42.0316 74.0935 42.0574 74.204C42.6527 81.0534 43.9341 87.8256 45.8824 94.419V94.42Z" fill="#0057C3"/>
<path d="M42.2779 34.561C42.2129 34.776 42.1589 34.907 42.1179 34.925C41.6819 35.086 5.78587 8.21999 5.46387 7.62299L7.85087 8.64299C19.4519 14.796 40.7209 26.487 40.7209 26.487C40.6549 26.69 41.9379 31.535 42.2779 34.561Z" fill="#152D5C"/>
<path d="M42.2788 34.56C41.9388 31.535 40.6548 26.69 40.6968 26.487C40.6968 26.487 17.9838 14.17 6.38281 8.02301C15.1378 11.192 43.5788 24.135 43.6688 24.267C43.7588 24.398 42.8338 32.621 42.2788 34.561V34.56Z" fill="#184E90"/>
<path d="M5.4653 7.63003C4.7073 7.63003 23.8393 35.564 24.1073 35.51C24.3763 35.456 40.6973 26.648 40.6973 26.487C40.6973 26.326 6.2223 7.62903 5.4653 7.62903V7.63003Z" fill="#7AC7FF"/>
<path d="M43.6689 24.482C44.2659 24.75 54.2079 16.539 54.2609 16.372C54.3149 16.204 5.46387 7.41997 5.46387 7.62297C5.46387 7.82597 43.0719 24.213 43.6689 24.481V24.482Z" fill="#7AC7FF"/>
<path d="M85.0473 15.523C84.368 15.523 83.8173 14.9723 83.8173 14.293C83.8173 13.6137 84.368 13.063 85.0473 13.063C85.7267 13.063 86.2773 13.6137 86.2773 14.293C86.2773 14.9723 85.7267 15.523 85.0473 15.523Z" fill="#97D5FF"/>
<path d="M3.48809 21.498L4.04909 23.132C4.05965 23.1652 4.07678 23.1959 4.09946 23.2224C4.12213 23.2489 4.1499 23.2705 4.18109 23.286L5.58109 23.94C5.77909 24.032 5.77909 24.36 5.58109 24.452L4.18109 25.106C4.14999 25.1214 4.12229 25.1429 4.09962 25.1692C4.07695 25.1954 4.05977 25.226 4.04909 25.259L3.48909 26.893C3.40909 27.124 3.12909 27.124 3.04909 26.893L2.48909 25.259C2.47853 25.2261 2.46151 25.1956 2.43901 25.1693C2.41652 25.143 2.38901 25.1215 2.35809 25.106L0.957094 24.452C0.759094 24.359 0.759094 24.032 0.957094 23.94L2.35709 23.286C2.38829 23.2705 2.41605 23.2489 2.43873 23.2224C2.46141 23.1959 2.47853 23.1652 2.48909 23.132L3.04909 21.498C3.12909 21.268 3.40909 21.268 3.48909 21.498H3.48809ZM100.647 24.12L101.208 25.755C101.232 25.825 101.279 25.88 101.339 25.908L102.74 26.562C102.938 26.655 102.938 26.982 102.74 27.074L101.339 27.728C101.308 27.7435 101.28 27.7652 101.258 27.7916C101.235 27.8181 101.218 27.8488 101.208 27.882L100.647 29.516C100.568 29.746 100.288 29.746 100.208 29.516L99.6481 27.882C99.6376 27.8488 99.6205 27.818 99.5978 27.7915C99.5751 27.7651 99.5473 27.7435 99.5161 27.728L98.1161 27.074C97.9181 26.982 97.9181 26.654 98.1161 26.562L99.5161 25.908C99.5472 25.8926 99.5749 25.8712 99.5976 25.8449C99.6203 25.8186 99.6375 25.788 99.6481 25.755L100.208 24.121C100.288 23.89 100.568 23.89 100.647 24.121V24.12ZM37.8441 0.213L38.5571 2.223C38.5871 2.309 38.6481 2.377 38.7241 2.411L40.5061 3.216C40.7571 3.329 40.7571 3.731 40.5061 3.846L38.7241 4.65C38.6851 4.66853 38.6502 4.69473 38.6215 4.72702C38.5928 4.75932 38.5709 4.79706 38.5571 4.838L37.8441 6.848C37.7441 7.132 37.3871 7.132 37.2871 6.848L36.5741 4.838C36.5603 4.79706 36.5384 4.75932 36.5097 4.72702C36.481 4.69473 36.4461 4.66853 36.4071 4.65L34.6251 3.845C34.3741 3.731 34.3741 3.33 34.6251 3.215L36.4071 2.411C36.4461 2.39247 36.481 2.36627 36.5097 2.33398C36.5384 2.30168 36.5603 2.26394 36.5741 2.223L37.2871 0.213C37.3871 -0.071 37.7441 -0.071 37.8441 0.213V0.213Z" fill="#97D5FF"/>
<path d="M94.3114 55.07C100.2 55.07 104.974 50.296 104.974 44.407C104.974 38.518 100.2 33.744 94.3114 33.744C88.4224 33.744 83.6484 38.518 83.6484 44.407C83.6484 50.296 88.4224 55.07 94.3114 55.07Z" fill="#D6EAFF"/>
<path fill-rule="evenodd" clip-rule="evenodd" d="M94.1069 37.611C93.942 37.5161 93.7462 37.4904 93.5625 37.5397C93.3787 37.589 93.2221 37.7093 93.1269 37.874L90.1919 42.958C90.0969 43.1227 90.0711 43.3185 90.1202 43.5022C90.1693 43.6859 90.2893 43.8427 90.4539 43.938L92.6619 45.212C93.0049 45.411 93.4439 45.293 93.6419 44.95L94.9149 42.745C96.5969 42.793 97.8019 44.04 97.8019 45.4C97.8019 45.871 97.6579 46.329 97.3989 46.728H88.5299C88.4349 46.728 88.3437 46.7657 88.2764 46.8328C88.2091 46.8999 88.1712 46.991 88.1709 47.086V47.696C88.1709 47.896 88.3319 48.056 88.5309 48.056H94.8859H94.8129V50.049C97.4799 50.049 99.7929 48.047 99.7929 45.4C99.7929 43.152 98.1259 41.37 95.9889 40.883L96.5769 39.866C96.6718 39.7011 96.6975 39.5053 96.6482 39.3216C96.5989 39.1378 96.4786 38.9812 96.3139 38.886L94.1059 37.611H94.1069Z" fill="#42A5F5"/>
<path fill-rule="evenodd" clip-rule="evenodd" d="M94.3663 37.056L94.0613 37.585L96.3613 38.913L96.6663 38.384C96.7613 38.2192 96.7871 38.0235 96.738 37.8398C96.6889 37.6561 96.5689 37.4993 96.4043 37.404L95.3463 36.794C95.1816 36.699 94.9859 36.6732 94.8021 36.7223C94.6184 36.7714 94.4617 36.8914 94.3663 37.056V37.056ZM90.6503 44.82C90.4978 44.7319 90.3866 44.5869 90.341 44.4168C90.2954 44.2467 90.3193 44.0655 90.4073 43.913L92.7073 45.241C92.6193 45.3935 92.4742 45.5047 92.3041 45.5503C92.134 45.5959 91.9528 45.572 91.8003 45.484L90.6503 44.82Z" fill="#20469C"/>
<path d="M95.8075 43.407C96.7242 43.407 97.4675 42.6638 97.4675 41.747C97.4675 40.8302 96.7242 40.087 95.8075 40.087C94.8907 40.087 94.1475 40.8302 94.1475 41.747C94.1475 42.6638 94.8907 43.407 95.8075 43.407Z" fill="#1976D2"/>
<path d="M98.742 49.385H90.216C89.8195 49.385 89.498 49.7065 89.498 50.103V50.659C89.498 51.0556 89.8195 51.377 90.216 51.377H98.742C99.1386 51.377 99.46 51.0556 99.46 50.659V50.103C99.46 49.7065 99.1386 49.385 98.742 49.385Z" fill="#1976D2"/>
<defs>
<linearGradient id="paint0_linear_37_4" x1="42.4522" y1="13.607" x2="85.4492" y2="61.502" gradientUnits="userSpaceOnUse">
<stop stop-color="#A8DCFF"/>
<stop offset="1" stop-color="white"/>
</linearGradient>
</defs>
</svg>
