<svg width="16" height="16" viewBox="0 0 16 16" fill="none" xmlns="http://www.w3.org/2000/svg">
<path d="M6.55631 4.78724e-07C7.77416 -0.0004647 8.96809 0.338091 10.0044 0.977758C11.0407 1.61743 11.8786 2.53295 12.424 3.62181C12.9695 4.71067 13.2011 5.92987 13.0929 7.1429C12.9847 8.35593 12.5409 9.51489 11.8113 10.49L15.9963 14.674L14.6713 16L10.4853 11.816C9.65303 12.4376 8.68504 12.8526 7.66101 13.0269C6.63698 13.2013 5.58618 13.13 4.59511 12.8188C3.60403 12.5077 2.70101 11.9656 1.96037 11.2373C1.21973 10.5089 0.662641 9.61512 0.334955 8.6294C0.00726876 7.64367 -0.0816454 6.59421 0.0755301 5.56741C0.232706 4.5406 0.631477 3.5658 1.23902 2.72323C1.84657 1.88066 2.64552 1.19441 3.57013 0.720972C4.49473 0.247529 5.51854 0.000426444 6.55731 4.78724e-07H6.55631ZM6.55631 1.875C5.31351 1.875 4.1216 2.3687 3.24281 3.2475C2.36401 4.12629 1.87031 5.3182 1.87031 6.561C1.87031 7.8038 2.36401 8.99571 3.24281 9.8745C4.1216 10.7533 5.31351 11.247 6.55631 11.247C7.79912 11.247 8.99102 10.7533 9.86981 9.8745C10.7486 8.99571 11.2423 7.8038 11.2423 6.561C11.2423 5.3182 10.7486 4.12629 9.86981 3.2475C8.99102 2.3687 7.79912 1.875 6.55631 1.875V1.875Z" fill="currentcolor"/>
</svg>
