<svg width="142" height="114" viewBox="0 0 142 114" fill="none" xmlns="http://www.w3.org/2000/svg">
<path d="M71.9863 47.0042C33.3263 47.0042 1.98633 73.8672 1.98633 107.004H141.986C141.986 73.8672 110.646 47.0042 71.9863 47.0042Z" fill="#007BE9"/>
<path d="M110.573 24.2252C109.466 22.9114 108.073 21.8682 106.5 21.1752C104.903 20.4686 103.17 20.1237 101.423 20.1652C99.9955 15.1352 95.8715 10.7942 91.0495 8.4202C83.7085 4.7652 74.8875 4.5592 66.8225 5.4402C58.5805 6.3402 50.3775 8.8262 43.5035 13.2492C37.2345 17.1792 32.2275 22.6732 29.0315 29.1292C25.6935 36.0262 25.0765 43.8342 27.2955 51.1262C27.8517 52.8829 28.5855 54.5783 29.4855 56.1862C29.8275 56.8112 30.8015 56.2992 30.4795 55.6992C26.9005 49.3342 26.2365 41.7242 28.1105 34.7772C30.0015 28.2042 33.8725 22.2972 39.2475 17.7842C44.9675 12.9702 51.8425 9.5592 59.2715 7.8512C63.1949 6.91303 67.1999 6.35644 71.2305 6.1892C75.1275 5.9592 79.0405 6.1882 82.8805 6.8702C86.5873 7.50785 90.1203 8.91212 93.2535 10.9932C96.0495 12.9232 98.2525 15.5252 99.6335 18.5342C99.8905 19.0972 100.11 19.6752 100.291 20.2642C97.8465 20.4682 95.5655 21.5202 93.8845 23.2192C93.2528 23.8203 92.7594 24.5515 92.4385 25.3622C92.1222 26.1619 91.989 27.0223 92.0485 27.8802C92.1205 28.6802 92.4265 29.4442 92.9325 30.0872C93.4477 30.7365 94.1322 31.231 94.9105 31.5162C95.7715 31.7462 96.6825 31.7492 97.5445 31.5222C98.3977 31.3001 99.176 30.8536 99.7985 30.2292C101.07 28.8645 101.818 27.0941 101.909 25.2312C102.036 23.9098 101.963 22.5768 101.692 21.2772C103.647 21.2952 105.559 21.8172 107.224 22.7892C113.71 26.6312 112.073 35.0272 110.25 40.8492C107.973 48.0809 104.532 54.8927 100.061 61.0162C95.7795 66.8822 90.2865 73.2922 82.4985 74.7042C80.6585 75.0572 78.7615 75.0442 76.9265 74.6662C76.2295 74.5162 75.8745 75.5222 76.5775 75.6722C80.6295 76.5402 84.8665 75.6412 88.4175 73.7222C91.9705 71.8052 94.9045 68.9942 97.4765 66.0022C102.719 59.8792 106.862 52.9762 109.737 45.5722C111.209 42.0489 112.243 38.3583 112.816 34.5832C113.276 30.9792 112.888 27.1552 110.573 24.2252ZM99.9825 28.0742C99.2455 29.5242 97.7465 30.7232 95.9695 30.6162C94.3715 30.5232 93.3395 29.1922 93.1345 27.7802C92.8915 26.1622 93.8585 24.6132 95.0555 23.5382C96.1604 22.566 97.4857 21.8778 98.9165 21.5332C99.4486 21.403 99.9898 21.3131 100.535 21.2642C100.669 21.8822 100.757 22.5082 100.798 23.1382C100.968 24.8267 100.686 26.53 99.9825 28.0742Z" fill="#D9EDFD"/>
<path d="M90.357 46.9342C90.0293 46.6706 89.6759 46.4408 89.302 46.2482C89.4749 46.1237 89.6198 45.9643 89.7272 45.7803C89.8347 45.5964 89.9024 45.3919 89.926 45.1802C89.9536 44.9619 89.9212 44.7402 89.8322 44.539C89.7432 44.3378 89.6011 44.1646 89.421 44.0382C89.1974 43.9064 88.9382 43.8475 88.6795 43.8699C88.4209 43.8924 88.1757 43.9949 87.978 44.1632C87.0663 42.3417 85.8432 40.6936 84.364 39.2932C83.7614 38.7197 83.1366 38.1699 82.491 37.6452C82.624 36.9375 82.5662 36.2072 82.3237 35.5292C82.0812 34.8513 81.6626 34.25 81.111 33.7872C80.5358 33.3181 79.8176 33.0594 79.0753 33.0539C78.333 33.0485 77.6111 33.2966 77.029 33.7572C75.724 33.2322 74.363 32.8072 73.064 33.2572C72.5632 33.4118 72.1052 33.6806 71.726 34.0424C71.3468 34.4042 71.0569 34.8492 70.879 35.3422C70.4482 35.1429 69.9744 35.0545 69.5008 35.0851C69.0271 35.1156 68.5686 35.2642 68.167 35.5172C67.787 35.7522 67.467 36.0702 67.227 36.4472C65.979 38.3202 66.709 40.5672 67.533 42.4272C68.157 44.6692 70.655 46.0362 72.172 47.4222C74.3078 49.3475 76.0962 51.6261 77.459 54.1582C78.2308 55.5907 78.8582 57.0965 79.332 58.6532C79.3664 58.7868 79.4498 58.9026 79.5655 58.9776C79.6813 59.0526 79.821 59.0814 79.957 59.0582C82.662 58.4882 85.057 56.9302 86.674 54.6882C88.0526 52.7396 88.7564 50.3938 88.678 48.0082C89.238 48.1152 89.818 48.0632 90.351 47.8582C90.4331 47.8174 90.5029 47.7555 90.5533 47.6789C90.6037 47.6023 90.633 47.5137 90.638 47.4222C90.6369 47.3239 90.6106 47.2274 90.5615 47.1422C90.5125 47.0569 90.4424 46.9856 90.358 46.9352L90.357 46.9342Z" fill="#17264D"/>
<path d="M84.1523 64.7842C83.4199 65.5758 82.6129 66.2948 81.7423 66.9312C78.6213 69.1782 74.3823 70.2142 70.7673 68.5112C69.5551 67.9363 68.5102 67.0607 67.7321 65.9677C66.954 64.8748 66.4687 63.6008 66.3223 62.2672L67.0403 62.3612L67.4713 62.4172L72.1413 63.0412C72.0033 62.1492 71.8473 61.1312 71.6793 60.2012C71.6147 59.8444 71.546 59.4884 71.4733 59.1332C71.395 58.5012 71.216 57.8857 70.9433 57.3102L77.7533 55.4882L78.8893 63.9782L79.8193 64.1082C80.7063 64.2342 81.5993 64.3582 82.4853 64.5022C82.7163 64.5332 82.9473 64.5712 83.1723 64.6152L84.1523 64.7832V64.7842Z" fill="#F6B399"/>
<path d="M80.8061 50.6052C80.8063 52.3006 80.3037 53.958 79.362 55.3678C78.4202 56.7776 77.0815 57.8764 75.5152 58.5254C73.9489 59.1743 72.2253 59.3442 70.5624 59.0136C68.8995 58.683 67.3721 57.8666 66.1731 56.6679C64.9742 55.4691 64.1577 53.9417 63.8269 52.2789C63.4961 50.616 63.6658 48.8924 64.3145 47.326C64.9633 45.7597 66.062 44.4208 67.4717 43.4789C68.8813 42.5369 70.5387 42.0342 72.2341 42.0342C74.5069 42.0358 76.6861 42.9393 78.2933 44.5463C79.9005 46.1533 80.8043 48.3324 80.8061 50.6052Z" fill="#F6B399"/>
<path d="M84.1521 52.4782C81.7861 56.5802 76.0741 57.7162 71.3981 55.0132C66.9911 52.4662 65.0741 47.4282 66.8471 43.4262C66.9521 43.1762 67.0751 42.9342 67.2151 42.7022C67.4131 42.3482 67.6431 42.0142 67.9021 41.7032C70.5621 38.4322 75.6931 37.6952 79.9691 40.1672C84.6201 42.8642 86.4991 48.3832 84.1521 52.4782Z" fill="#F6B399"/>
<path d="M83.3841 55.9182C83.4167 56.6136 83.2402 57.3028 82.8774 57.8969C82.5146 58.4911 81.9821 58.9629 81.3486 59.2516C80.7151 59.5402 80.0097 59.6325 79.3233 59.5165C78.6369 59.4005 78.0009 59.0815 77.4975 58.6007C76.9941 58.1198 76.6463 57.4992 76.4989 56.8188C76.3515 56.1385 76.4113 55.4295 76.6706 54.7835C76.9299 54.1374 77.3768 53.5839 77.9537 53.1942C78.5306 52.8045 79.211 52.5966 79.9071 52.5972C80.8084 52.5771 81.6809 52.9156 82.3328 53.5382C82.9847 54.1609 83.3629 55.0169 83.3841 55.9182Z" fill="#F6B399"/>
<path d="M82.0046 55.8562C81.116 55.1886 80.0494 54.7995 78.9396 54.7382C78.8699 54.7345 78.8001 54.7446 78.7343 54.7679C78.6685 54.7912 78.6079 54.8272 78.556 54.874C78.504 54.9207 78.4618 54.9771 78.4318 55.0402C78.4017 55.1032 78.3843 55.1715 78.3806 55.2412C78.3769 55.311 78.387 55.3807 78.4103 55.4466C78.4336 55.5124 78.4696 55.573 78.5163 55.6249C78.5631 55.6768 78.6195 55.719 78.6825 55.7491C78.7456 55.7792 78.8139 55.7965 78.8836 55.8002C79.0086 55.8002 79.1336 55.8002 79.2636 55.8302C79.5916 55.8832 79.9136 55.9652 80.2256 56.0742C80.3446 56.1182 80.4566 56.1622 80.5756 56.2182C80.8716 56.3682 81.1556 56.5412 81.4246 56.7362C81.5416 56.8123 81.6838 56.8393 81.8204 56.8112C81.9571 56.7831 82.0772 56.7023 82.1546 56.5862C82.2275 56.4684 82.2525 56.3271 82.2246 56.1914C82.1967 56.0557 82.118 55.9358 82.0046 55.8562Z" fill="#EE796A"/>
<path d="M42.5625 90.0112L41.3645 90.4542C35.8205 92.5012 30.1895 94.6742 24.2715 95.1302C21.2935 95.3542 18.1845 95.1302 15.5315 93.6442C14.3235 93.0061 13.2819 92.0936 12.4903 90.98C11.6987 89.8665 11.1792 88.5829 10.9735 87.2322C10.5495 84.3422 11.2735 81.4322 11.9665 78.6422C12.7665 75.3962 13.5985 72.1582 14.4635 68.9282C16.1284 62.6359 17.8976 56.3717 19.7705 50.1382L17.7405 48.3712C16.4123 48.035 15.0947 47.6582 13.7895 47.2412C10.8118 46.2807 7.90587 45.1104 5.09353 43.7392C3.77949 43.2111 2.59063 42.4137 1.60353 41.3982C1.19751 40.9391 0.906502 40.3899 0.754535 39.7961C0.602569 39.2024 0.593999 38.581 0.729533 37.9832C0.416116 37.4116 0.28131 36.7592 0.342533 36.1102C0.485533 34.7682 1.47853 33.4752 2.92053 33.5132C3.11147 33.0948 3.4018 32.7293 3.76624 32.4487C4.13068 32.1681 4.55818 31.9808 5.01153 31.9032C6.26053 31.7962 7.15353 32.8012 7.82753 33.6932C8.40309 34.4861 9.04868 35.2258 9.75653 35.9032C9.58482 35.1897 9.4721 34.4632 9.41953 33.7312C9.3494 33.1001 9.41765 32.4613 9.61953 31.8592C9.73278 31.5422 9.92332 31.2585 10.1739 31.0338C10.4245 30.8091 10.7272 30.6504 11.0545 30.5722C11.4063 30.5077 11.7677 30.5195 12.1145 30.6068C12.4613 30.6941 12.7853 30.8549 13.0645 31.0782C14.1145 31.9212 14.5695 33.3012 15.0375 34.5182C15.4171 35.691 15.9394 36.8128 16.5925 37.8582C16.9599 38.3812 17.4354 38.8191 17.9868 39.1423C18.5382 39.4655 19.1527 39.6663 19.7885 39.7312C21.4025 39.8542 23.0235 39.8692 24.6385 39.7742L29.8645 39.7062C32.3615 39.6742 35.4525 39.9742 36.4575 42.6962C36.8524 44.0401 36.925 45.458 36.6695 46.8352C36.4635 48.5702 36.2445 50.3122 36.0455 52.0482C35.6265 55.5442 35.1955 59.0462 34.7965 62.5422C34.4965 65.0392 33.3865 68.4352 33.0865 70.9072C33.5315 70.6172 33.9615 70.3032 34.3715 69.9652C34.6215 69.7712 34.8715 69.5652 35.1145 69.3412C35.5835 68.9662 36.0265 68.6232 36.3635 68.4232C37.6952 72.4673 38.9441 76.5381 40.1095 80.6332C40.9526 83.7522 41.7702 86.878 42.5625 90.0102V90.0112Z" fill="#F6B399"/>
<path d="M83.9655 54.7262C83.8835 55.2262 83.8085 55.3502 83.3845 55.0692C82.1355 54.1952 79.6945 54.3892 78.7585 55.6372C78.4525 56.0372 77.8725 56.2622 77.9095 55.7002C78.0592 53.5703 78.911 51.5502 80.3315 49.9562C80.9555 49.2322 81.6495 48.5022 81.5425 47.4592C81.3443 46.4287 80.8749 45.4697 80.1825 44.6812C76.1905 43.8912 72.4395 42.1812 69.2255 39.6872C69.1515 39.6247 69.0945 39.5446 69.0597 39.4542C69.0249 39.3638 69.0136 39.2661 69.0266 39.1702C69.0397 39.0742 69.0768 38.9831 69.1345 38.9053C69.1921 38.8276 69.2685 38.7656 69.3565 38.7252C69.4764 38.2398 69.7436 37.8035 70.1214 37.476C70.4992 37.1485 70.969 36.946 71.4665 36.8962C72.7102 36.801 73.9609 36.9235 75.1625 37.2582C79.0765 38.1142 83.0165 40.3052 84.9135 43.9762C86.6495 47.3842 86.5875 51.8042 83.9655 54.7262ZM66.8405 45.5422C66.9081 45.3419 67.0383 45.1686 67.2118 45.048C67.3854 44.9273 67.5931 44.8656 67.8044 44.8719C68.0157 44.8783 68.2194 44.9524 68.3853 45.0833C68.5513 45.2142 68.6708 45.395 68.7262 45.599C68.7817 45.8029 68.7701 46.0194 68.6932 46.2162C68.6162 46.4131 68.4781 46.5801 68.2991 46.6925C68.12 46.8049 67.9096 46.8568 67.6989 46.8406C67.4881 46.8243 67.2882 46.7407 67.1285 46.6022C66.9803 46.4743 66.8738 46.3051 66.8224 46.1162C66.7711 45.9274 66.7774 45.7275 66.8405 45.5422Z" fill="#17264D"/>
<path d="M69.4876 43.1142C69.4231 42.9893 69.3115 42.8952 69.1775 42.8525C69.0435 42.8098 68.8981 42.8222 68.7731 42.8867C68.6482 42.9513 68.5541 43.0629 68.5114 43.1969C68.4688 43.3309 68.4811 43.4763 68.5456 43.6012C68.7456 44.1501 68.7776 44.7461 68.6374 45.3132C68.4972 45.8803 68.1913 46.3927 67.7587 46.7852C67.2467 47.2412 66.5107 47.4092 66.1607 48.0342C65.9781 48.3164 65.9125 48.6585 65.9778 48.9882C66.0431 49.3178 66.2342 49.6091 66.5107 49.8002C67.1347 50.1312 67.6906 49.2452 67.0906 48.9142C66.9966 48.8642 66.9846 48.7582 67.0466 48.6142C67.1536 48.3462 67.5216 48.1902 67.7526 48.0592C68.5962 47.5848 69.2378 46.819 69.5572 45.9053C69.8766 44.9917 69.8519 43.9929 69.4876 43.0962V43.1142Z" fill="#EE796A"/>
<path d="M70.0654 42.3422C70.0274 42.1613 69.9524 41.9902 69.845 41.8398C69.7376 41.6893 69.6001 41.5628 69.4414 41.4682C68.8164 41.0442 67.6934 40.6572 67.1684 41.5242C67.1166 41.6007 67.073 41.6825 67.0384 41.7682C66.7064 42.7422 68.6734 43.7532 69.4414 43.4162C69.6494 43.3313 69.8235 43.1798 69.9364 42.9855C70.0493 42.7912 70.0946 42.565 70.0654 42.3422ZM72.5464 47.7022C72.5856 47.5772 72.6494 47.4614 72.734 47.3613C72.8185 47.2613 72.9222 47.1791 73.0388 47.1196C73.1555 47.0601 73.2829 47.0244 73.4135 47.0146C73.5441 47.0048 73.6753 47.0212 73.7995 47.0627C73.9238 47.1042 74.0385 47.1701 74.137 47.2564C74.2355 47.3428 74.3158 47.4478 74.3732 47.5656C74.4306 47.6833 74.464 47.8113 74.4714 47.942C74.4788 48.0728 74.4601 48.2037 74.4164 48.3272C74.3301 48.5708 74.1516 48.7707 73.9193 48.884C73.687 48.9973 73.4195 49.0149 73.1744 48.933C72.9293 48.8511 72.7262 48.6762 72.6087 48.446C72.4913 48.2158 72.4689 47.9487 72.5464 47.7022Z" fill="#17264D"/>
<path d="M71.2043 51.3862C71.1368 51.2632 71.0244 51.1711 70.8905 51.1292C70.7567 51.0873 70.6118 51.0987 70.4862 51.1612C69.4707 51.7472 68.3253 52.0712 67.1532 52.1042C67.0138 52.0989 66.8777 52.1482 66.7739 52.2415C66.6701 52.3349 66.6068 52.465 66.5972 52.6042C66.5929 52.6736 66.6025 52.7432 66.6254 52.8089C66.6483 52.8746 66.6841 52.9351 66.7307 52.9867C66.7772 53.0384 66.8336 53.0803 66.8966 53.1099C66.9595 53.1395 67.0277 53.1563 67.0972 53.1592C68.4599 53.1368 69.7949 52.7716 70.9792 52.0972C71.1004 52.0298 71.1913 51.9187 71.2331 51.7864C71.2749 51.6542 71.2646 51.511 71.2043 51.3862ZM16.3542 43.8142C13.0142 41.7542 10.3682 38.1142 9.84925 34.1682C9.73154 33.6039 9.76418 33.0185 9.94389 32.4708C10.1236 31.923 10.4441 31.4321 10.8733 31.0472C11.4162 30.6352 10.7053 29.8482 10.1682 30.2672C8.13325 31.8272 8.70125 34.7552 9.44425 36.8402C10.5989 40.1039 12.8317 42.8764 15.7743 44.7002C16.3542 45.0562 16.9353 44.1702 16.3542 43.8132V43.8142Z" fill="#EE796A"/>
<path d="M15.0196 44.8622C11.7263 43.6415 8.74223 41.7104 6.27957 39.2062C5.12957 38.0322 3.73857 36.6152 3.45157 34.9362C3.38673 34.587 3.40009 34.2278 3.49069 33.8844C3.5813 33.541 3.7469 33.2219 3.97557 32.9502C4.16531 32.7019 4.42903 32.5204 4.72866 32.4318C5.02829 32.3432 5.34833 32.3521 5.64257 32.4572C6.36388 32.8488 6.94282 33.4586 7.29657 34.1992C7.92057 35.1732 8.48257 36.1532 9.07657 37.1272C9.42557 37.7072 10.3686 37.2272 10.0126 36.6402L8.23957 33.7122C7.81846 32.9242 7.22508 32.2412 6.50357 31.7142C6.13665 31.473 5.71264 31.3328 5.27426 31.3077C4.83588 31.2826 4.39863 31.3735 4.00657 31.5712C3.63397 31.782 3.30655 32.0641 3.043 32.4014C2.77944 32.7387 2.58493 33.1247 2.47057 33.5372C1.90257 35.5172 3.22657 37.3772 4.44357 38.7942C7.19482 41.9778 10.7088 44.4114 14.6566 45.8672C15.3246 46.0972 15.6566 45.0932 15.0196 44.8622Z" fill="#EE796A"/>
<path d="M14.5702 46.4792C11.7289 45.7836 9.02505 44.6142 6.57224 43.0202C5.33567 42.2286 4.17386 41.3258 3.10124 40.3232C2.16524 39.4372 1.14124 38.3132 1.03524 36.9582C0.954241 35.8852 1.65924 34.4612 2.90824 34.4982C3.03992 34.4919 3.16452 34.4367 3.25771 34.3435C3.3509 34.2502 3.406 34.1256 3.41224 33.9939C3.41849 33.8623 3.37544 33.733 3.29149 33.6313C3.20755 33.5297 3.08873 33.463 2.95824 33.4442C2.29455 33.471 1.65807 33.7152 1.14687 34.1393C0.635659 34.5634 0.278088 35.1439 0.129241 35.7912C-0.288759 37.2962 0.361241 38.7752 1.30324 39.9422C2.35911 41.1661 3.56997 42.2472 4.90524 43.1582C6.22201 44.1109 7.61968 44.9464 9.08224 45.6552C10.7354 46.4526 12.4653 47.0798 14.2452 47.5272C14.8942 47.6472 15.2312 46.6412 14.5692 46.4792H14.5702Z" fill="#EE796A"/>
<path d="M9.41901 44.9182C7.61401 44.0822 5.58601 43.8072 3.80001 42.8772C2.28301 42.0722 0.910006 40.6112 1.22801 38.7692C1.23509 38.6293 1.18647 38.4922 1.09277 38.388C0.999071 38.2838 0.86792 38.221 0.728005 38.2132C0.588691 38.2082 0.452892 38.2576 0.34932 38.3509C0.245748 38.4442 0.182521 38.5742 0.173005 38.7132C-0.182995 40.7672 1.24701 42.6212 2.93301 43.6012C4.84901 44.7122 7.07801 44.9992 9.06901 45.9232C9.20137 45.9672 9.34573 45.9572 9.47078 45.8954C9.59583 45.8336 9.69148 45.7251 9.73701 45.5932C9.77713 45.4613 9.76681 45.3192 9.70805 45.1945C9.64929 45.0697 9.54627 44.9713 9.41901 44.9182Z" fill="#EE796A"/>
<path d="M104.803 106.922C104.729 107.044 104.61 107.131 104.472 107.166C104.391 107.181 104.307 107.177 104.227 107.155C104.148 107.134 104.073 107.095 104.01 107.041H56.4274C56.32 107.127 56.1848 107.17 56.0476 107.162C55.9105 107.154 55.7811 107.096 55.6844 106.998C55.6203 106.933 55.5732 106.854 55.5474 106.766C55.0474 104.914 54.5874 103.052 54.1674 101.179C53.0644 96.3348 52.2308 91.4329 51.6704 86.4962C48.9614 87.6262 46.2144 88.6682 43.4674 89.6732L42.5684 90.0042C41.7349 86.8787 40.8859 83.7573 40.0214 80.6402C38.8486 76.5471 37.6001 72.476 36.2764 68.4292L36.9004 68.0552C39.5309 66.3009 42.2779 64.7279 45.1224 63.3472C46.5483 62.6898 48.0293 62.1595 49.5484 61.7622C51.3884 61.3222 53.2754 61.1122 55.1664 61.1372C57.2324 61.1842 59.2934 61.3472 61.3414 61.6242L64.3684 62.0052L65.4234 62.1362L66.3604 62.2552C66.507 63.5886 66.9924 64.8624 67.7704 65.9551C68.5485 67.0479 69.5933 67.9234 70.8054 68.4982C74.4194 70.2022 78.6654 69.1662 81.7804 66.9182C82.651 66.2818 83.4581 65.5628 84.1904 64.7712L85.3074 64.9892L86.1684 65.1772C87.6674 65.5202 89.1304 66.0032 90.5384 66.6192C93.5173 67.9766 96.058 70.1388 97.8744 72.8622C99.6267 75.5462 100.894 78.5169 101.619 81.6392C103.492 89.1302 102.868 96.9652 104.56 104.494C104.685 105.118 104.753 105.586 104.822 106.061C104.883 106.116 104.931 106.184 104.963 106.259C104.995 106.334 105.012 106.415 105.01 106.496C105.009 106.578 104.99 106.659 104.955 106.732C104.919 106.806 104.867 106.871 104.803 106.922Z" fill="#7AC7FF"/>
<path d="M65.2174 83.8612C65.2432 83.9486 65.2403 84.0419 65.209 84.1275C65.1776 84.213 65.1195 84.2862 65.0434 84.3362C64.9684 84.3982 64.8934 84.4422 64.8124 84.4982C64.5254 84.9042 64.3064 84.9542 64.1124 84.9042C63.0171 85.4176 61.7963 85.6018 60.5984 85.4344C59.4004 85.267 58.2769 84.7552 57.3644 83.9612C55.1174 81.9392 55.3794 78.6422 54.1184 76.1012C53.2162 74.2483 51.6882 72.7738 49.8044 71.9382C49.1114 71.6442 48.3814 71.4762 47.6944 71.1632C47.0262 70.8957 46.4629 70.4184 46.0894 69.8032C45.8996 69.4964 45.7935 69.1453 45.7816 68.7848C45.7696 68.4242 45.8523 68.0669 46.0214 67.7482C46.2151 67.4386 46.4821 67.1815 46.7989 66.9998C47.1156 66.818 47.4723 66.7172 47.8374 66.7062C47.5433 66.6277 47.2555 66.5274 46.9764 66.4062C45.8084 65.9062 44.8854 64.8892 45.1034 63.5412C45.1595 63.1643 45.3011 62.8052 45.5174 62.4914C45.7338 62.1777 46.019 61.9177 46.3514 61.7312C46.2358 61.6443 46.1256 61.5504 46.0214 61.4502C45.6403 61.0896 45.3881 60.614 45.3034 60.0963C45.2187 59.5786 45.3061 59.0474 45.5524 58.5842C46.2274 57.5352 47.6254 57.6602 48.6744 57.7792C51.7611 58.142 54.7112 59.2588 57.2644 61.0312C56.6441 59.5782 55.8017 58.2304 54.7674 57.0362C54.3325 56.5318 53.863 56.0583 53.3624 55.6192C52.8624 55.2272 52.4164 54.7692 52.0394 54.2582C51.877 54.002 51.7737 53.7129 51.7371 53.4118C51.7005 53.1107 51.7314 52.8053 51.8277 52.5177C51.9239 52.2301 52.0831 51.9675 52.2935 51.7491C52.504 51.5307 52.7605 51.362 53.0444 51.2552C54.3544 50.6872 55.6844 51.3112 56.7024 52.1602C57.7143 53.023 58.6236 53.9995 59.4124 55.0702C62.5334 59.2462 63.9694 64.3652 65.2554 69.3472C65.3364 69.4172 65.3934 69.5112 65.4174 69.6152C65.7294 70.8202 66.0414 72.0312 66.2854 73.2552C66.9594 76.7882 67.0724 80.7022 65.2174 83.8612Z" fill="#F6B399"/>
<path d="M94.0033 93.6812C90.1833 101.741 87.7103 106.548 83.7333 110.836C81.1303 113.646 78.8523 113.646 74.4633 113.646C68.3513 113.646 64.0563 108.651 60.6353 96.3592C59.6993 93.0072 57.3643 83.9422 57.3643 83.9422C57.3643 83.9422 60.5353 76.5322 61.0723 76.0892C61.6093 75.6462 65.7983 72.5302 65.7983 72.5302L74.4383 90.3972L74.8883 91.3272C75.1179 90.9954 75.3263 90.6494 75.5123 90.2912C76.5048 88.477 77.2779 86.5512 77.8153 84.5542L94.0033 93.6812Z" fill="#F6B399"/>
<path d="M95.1335 91.3462L78.3965 82.6062C79.8195 77.7742 81.5175 72.6862 82.9355 70.9012C85.8755 67.1552 90.6015 64.4152 97.5055 72.3372C101.782 77.2502 98.3985 84.5672 95.1335 91.3472V91.3462Z" fill="#7AC7FF"/>
<path d="M58.2696 71.5192C56.8304 70.118 55.165 68.9698 53.3436 68.1232C52.4334 67.698 51.4869 67.3553 50.5156 67.0992C49.4908 66.7494 48.3998 66.6382 47.3256 66.7742C46.8064 66.8609 46.329 67.1123 45.9636 67.4912C45.5983 67.87 45.3644 68.3563 45.2966 68.8782C45.2346 69.5582 46.2966 69.6082 46.3516 68.9342C46.4516 67.7922 47.9066 67.6862 48.7556 67.8042C49.8516 67.9702 50.9236 68.2642 51.9516 68.6782C54.0166 69.477 55.8999 70.6829 57.4896 72.2242C57.9766 72.6992 58.7626 71.9942 58.2696 71.5192Z" fill="#EE796A"/>
<path d="M59.7054 67.0372C57.8615 64.6518 55.3591 62.8589 52.5074 61.8802C51.0481 61.3368 49.5003 61.0702 47.9434 61.0942C46.4334 61.1622 44.7534 61.9492 44.5354 63.6222C44.4996 64.0537 44.5605 64.4878 44.7138 64.8928C44.8671 65.2978 45.1088 65.6635 45.4214 65.9632C46.1313 66.6038 46.9731 67.081 47.8874 67.3612C48.0205 67.4055 48.1658 67.3952 48.2914 67.3325C48.417 67.2698 48.5126 67.1599 48.5572 67.0268C48.6018 66.8937 48.5918 66.7484 48.5294 66.6227C48.467 66.497 48.3573 66.4011 48.2244 66.3562C47.1264 65.9502 45.4344 65.2262 45.5844 63.7782C45.7344 62.3302 47.4004 62.1052 48.4874 62.1482C51.1121 62.304 53.6394 63.198 55.7784 64.7272C56.9668 65.5693 58.0196 66.5881 58.9004 67.7482C59.3374 68.2852 60.1234 67.5742 59.7054 67.0372Z" fill="#EE796A"/>
<path d="M60.4598 63.2412C58.7659 60.9766 56.4493 59.2542 53.7928 58.2842C52.4043 57.7199 50.9609 57.3013 49.4858 57.0352C48.0498 56.7852 46.3958 56.8982 45.3088 57.9972C44.2228 59.0962 44.1668 60.9562 45.4778 61.8672C46.0388 62.2612 46.6138 61.3742 46.0578 60.9812C45.1778 60.3572 45.5528 59.1082 46.2698 58.5592C47.3378 57.7292 48.8238 57.9342 50.0158 58.2222C52.4325 58.7312 54.7282 59.7019 56.7768 61.0812C57.8902 61.8614 58.8599 62.8287 59.6429 63.9402C59.736 64.0434 59.866 64.1059 60.0048 64.1141C60.1436 64.1223 60.2801 64.0757 60.3848 63.9842C60.4902 63.8936 60.5567 63.7661 60.5709 63.6279C60.585 63.4896 60.5456 63.3513 60.4608 63.2412H60.4598ZM77.0478 58.9642C75.3894 59.8204 73.5439 60.25 71.6778 60.2142C71.6136 59.8574 71.5452 59.5014 71.4728 59.1462C73.2367 59.2243 74.9904 58.841 76.5608 58.0342C76.6812 57.9911 76.8131 57.9931 76.9322 58.0396C77.0513 58.0861 77.1496 58.1741 77.2089 58.2874C77.2682 58.4006 77.2845 58.5315 77.255 58.6559C77.2254 58.7803 77.1518 58.8898 77.0478 58.9642ZM34.3148 69.9582L32.3358 79.6782C32.2917 79.8113 32.1967 79.9215 32.0715 79.9847C31.9463 80.0479 31.8011 80.0588 31.6678 80.0152C31.538 79.9669 31.4311 79.8714 31.3687 79.7477C31.3062 79.6241 31.2927 79.4814 31.3308 79.3482L33.0788 70.9012C33.5088 70.6092 33.9208 70.2952 34.3148 69.9582ZM78.9328 99.9242C77.453 96.802 75.9714 93.6807 74.4878 90.5602C74.4378 90.4042 74.8878 91.3342 74.8878 91.3342C75.1175 91.0021 75.326 90.6557 75.5118 90.2972C76.9598 93.3312 78.4079 96.3782 79.8819 99.4122C80.1688 100.043 79.2318 100.548 78.9318 99.9242H78.9328Z" fill="#EE796A"/>
<path d="M76.0366 43.4892C75.5553 43.2162 75.01 43.0761 74.4566 43.0832C74.2678 43.075 74.0799 43.114 73.91 43.1968C73.7401 43.2796 73.5935 43.4035 73.4836 43.5572C73.3935 43.6993 73.3457 43.864 73.3457 44.0322C73.3457 44.2004 73.3935 44.3652 73.4836 44.5072C73.6016 45.0932 74.6256 45.3672 75.0936 45.5422C75.8556 45.8232 76.5736 46.1672 77.3036 46.5042C77.3932 46.5325 77.4886 46.5369 77.5803 46.5168C77.6721 46.4967 77.7569 46.4528 77.8265 46.3897C77.896 46.3265 77.9477 46.2463 77.9765 46.1569C78.0053 46.0675 78.0102 45.9721 77.9906 45.8802C77.6733 44.8604 76.9729 44.0033 76.0366 43.4892Z" fill="#17264D"/>
<path d="M55.94 107.122H54.842C54.425 105.707 54.032 104.281 53.662 102.846C51.9786 96.235 50.8385 89.4972 50.253 82.7002C50.2282 82.5649 50.2557 82.4252 50.3299 82.3094C50.4042 82.1935 50.5196 82.1102 50.653 82.0762C50.7886 82.0481 50.9299 82.0742 51.0465 82.149C51.1632 82.2238 51.2459 82.3412 51.277 82.4762C52.0024 90.8273 53.5646 99.0844 55.94 107.123V107.122ZM52.177 32.8472C52.097 33.1092 52.032 33.2692 51.981 33.2912C51.45 33.4882 7.68597 0.732219 7.29297 0.00521851L10.203 1.24922C24.347 8.75022 50.278 23.0032 50.278 23.0032C50.198 23.2512 51.763 29.1592 52.178 32.8472H52.177Z" fill="#0057C3"/>
<path d="M52.1781 32.8472C51.7631 29.1582 50.1981 23.2502 50.2501 23.0032C50.2501 23.0032 22.5581 7.98622 8.41406 0.492218C19.0881 4.35522 53.7641 20.1362 53.8741 20.2972C53.9821 20.4572 52.8541 30.4832 52.1781 32.8472Z" fill="#007BE9"/>
<path d="M7.29432 0.0112C6.37032 0.0112 29.6963 34.0692 30.0243 34.0042C30.3513 33.9382 50.2503 23.1992 50.2503 23.0032C50.2503 22.8062 8.21832 0.0112 7.29432 0.0112Z" fill="white"/>
<path d="M53.873 20.5582C54.6 20.8862 66.722 10.8742 66.787 10.6712C66.853 10.4672 7.29297 -0.242793 7.29297 0.00420728C7.29297 0.252207 53.145 20.2312 53.873 20.5582Z" fill="white"/>
<path d="M101.486 13.0042C100.658 13.0042 99.9863 12.3326 99.9863 11.5042C99.9863 10.6758 100.658 10.0042 101.486 10.0042C102.315 10.0042 102.986 10.6758 102.986 11.5042C102.986 12.3326 102.315 13.0042 101.486 13.0042Z" fill="#D9EDFD"/>
<path d="M4.25308 18.2152L4.93708 20.2072C4.96708 20.2932 5.02408 20.3602 5.09708 20.3952L6.80508 21.1922C7.04608 21.3052 7.04608 21.7032 6.80508 21.8162L5.09708 22.6132C5.05916 22.6322 5.02545 22.6586 4.99796 22.6909C4.97047 22.7232 4.94977 22.7607 4.93708 22.8012L4.25308 24.7932C4.15708 25.0742 3.81508 25.0742 3.71808 24.7932L3.03508 22.8012C3.02239 22.7607 3.00168 22.7232 2.9742 22.6909C2.94671 22.6586 2.913 22.6322 2.87508 22.6132L1.16708 21.8162C0.926078 21.7032 0.926078 21.3052 1.16708 21.1922L2.87508 20.3952C2.913 20.3762 2.94671 20.3498 2.9742 20.3175C3.00168 20.2852 3.02239 20.2477 3.03508 20.2072L3.71808 18.2152C3.81508 17.9342 4.15708 17.9342 4.25308 18.2152Z" fill="white"/>
</svg>
